# xmcd CD database file
#
# Track frame offsets:
#	150
#	28977
#	60409
#	85485
#	111780
#	143097
#	172320
#
# Disc length: 2605 seconds
#
# Revision: 0
# Processed by: cddbd v1.5.2PL0 Copyright (c) Steve Scherf et al.
# Submitted via: CDex 1.70beta2
#
DISCID=610a2b07
DTITLE=ALASTAIR LAURENCE  - Time Remembered
DYEAR=1900
DGENRE=Jazz
TTITLE0=Time Remembered
TTITLE1=Blue Rondo a La Turk
TTITLE2=Naima
TTITLE3=Skating In Central Park
TTITLE4=Quiet Girl
TTITLE5=Black Orpheus
TTITLE6=Autumn Leaves
EXTD=
EXTT0=
EXTT1=
EXTT2=
EXTT3=
EXTT4=
EXTT5=
EXTT6=
PLAYORDER=
